<svg width="31.000000" height="33.000000" viewBox="0 0 31 33" fill="none" xmlns="http://www.w3.org/2000/svg" xmlns:xlink="http://www.w3.org/1999/xlink">
	<desc>
			Created with Pixso.
	</desc>
	<defs/>
	<path id="Vector" d="M6.67 7.74C6.38 7.69 6.04 7.67 5.72 7.57C5.09 7.39 4.63 7 4.54 6.32C4.45 5.68 4.77 5.24 5.27 4.88C6.99 3.63 8.88 2.63 10.88 1.91C10.99 1.88 11.09 1.83 11.18 1.79C11.22 1.77 11.23 1.73 11.32 1.62C11.07 1.54 10.85 1.44 10.63 1.39C10.17 1.28 9.92 1 9.97 0.61C10.02 0.22 10.33 -0.03 10.79 0C11.53 0.04 12.13 0.36 12.49 1.03C12.62 1.28 12.75 1.33 13.03 1.26C14.46 0.9 15.92 0.71 17.39 0.7C17.62 0.69 17.85 0.73 18.07 0.81C19.13 1.31 20.07 2.03 20.85 2.91C21.4 3.54 21.36 4.25 21.23 4.99C21.16 5.41 21.05 5.81 20.96 6.22C20.63 7.62 20.31 9.02 19.99 10.43C19.97 10.56 19.98 10.69 20.04 10.81C20.7 12.16 20.37 13.82 19.26 14.78C19.15 14.89 19.07 15.03 19.04 15.19C18.8 16.18 18.44 17.11 17.82 17.93C17.74 18.06 17.7 18.22 17.7 18.38C17.69 18.97 17.72 19.55 17.69 20.14C17.67 20.53 17.79 20.86 18.09 21.07C18.63 21.43 18.54 21.9 18.4 22.4C18.33 22.58 18.25 22.75 18.16 22.92L17.05 22.09C14.68 23.53 12.3 23.54 9.86 22.08C8.4 23.44 6.41 23.89 4.63 24.73C3.39 25.31 2.22 25.98 1.52 27.2C1.25 27.66 1.09 28.18 0.85 28.75L14.87 28.75C15 29.22 15.13 29.66 15.27 30.14L-0.6 30.14C-0.62 29.09 -0.47 28.08 -0.06 27.12C0.53 25.76 1.53 24.77 2.82 24.1C4.05 23.45 5.37 22.96 6.63 22.35C7.34 22.01 8.03 21.62 8.69 21.2C8.88 21.08 9.02 20.92 9.12 20.71C9.21 20.51 9.23 20.29 9.2 20.07C9.18 19.95 9.18 19.83 9.2 19.71C9.26 18.76 9.16 17.89 8.57 17.06C8.2 16.54 8.1 15.83 7.86 15.21C7.79 15.02 7.69 14.81 7.54 14.68C6.57 13.83 6.23 12.01 6.86 10.88C6.92 10.77 6.99 10.63 6.97 10.51C6.88 9.59 6.78 8.68 6.67 7.74ZM9.1 13.78C9.11 14.73 9.4 15.71 9.91 16.63C10.03 16.84 10.23 17 10.36 17.2C10.47 17.35 10.6 17.52 10.61 17.69C10.63 18.51 10.63 19.32 10.61 20.14C10.6 20.7 10.84 21.07 11.34 21.3C12.22 21.71 13.21 21.85 14.17 21.69C14.72 21.59 15.27 21.39 15.79 21.17C16.15 21.03 16.32 20.72 16.31 20.29C16.27 19.42 16.29 18.55 16.31 17.68C16.32 17.53 16.38 17.38 16.47 17.26C16.64 17.02 16.89 16.83 17.03 16.58C17.47 15.79 17.73 14.91 17.79 14.02C17.8 13.79 17.82 13.55 18.14 13.6C18.55 13.67 18.72 13.42 18.8 13.09C18.89 12.78 18.94 12.46 18.97 12.13C18.98 11.8 18.9 11.48 18.51 11.35C18.25 11.27 18.25 11.11 18.34 10.88C18.47 10.58 18.58 10.27 18.65 9.95C18.82 9.23 18.95 8.5 19.11 7.76C19.01 7.73 18.92 7.71 18.82 7.7C15.39 7.7 11.95 7.7 8.52 7.7C8.27 7.7 8.16 7.79 8.19 8.03C8.29 8.93 8.37 9.84 8.5 10.73C8.55 11.03 8.59 11.25 8.27 11.41C8.14 11.49 8.05 11.61 8 11.75C7.93 12.02 7.91 12.29 7.96 12.56C8 12.83 8.11 13.09 8.26 13.31C8.4 13.53 8.76 13.6 9.1 13.78L9.1 13.78ZM5.98 6L6.04 6.2C6.21 6.23 6.39 6.29 6.57 6.29C10.77 6.29 14.96 6.3 19.16 6.3C19.42 6.3 19.53 6.2 19.57 5.96C19.67 5.47 19.77 4.98 19.89 4.49C19.96 4.16 19.89 3.89 19.64 3.67C19.14 3.24 18.62 2.82 18.1 2.41C17.77 2.14 17.38 2.08 16.95 2.1C14.32 2.23 11.74 2.9 9.38 4.07C8.22 4.65 7.11 5.35 5.98 6L5.98 6Z" fill="#3F7C91" fill-opacity="1.000000" fill-rule="nonzero"/>
	<path id="Vector" d="M23.31 33C21.25 32.95 19.49 32.55 17.98 31.34C15.78 29.58 15.73 26.73 17.88 24.9C18.04 24.76 18.21 24.62 18.4 24.5C19.67 23.74 19.98 22.55 19.88 21.17C19.84 20.74 19.85 20.3 19.9 19.87C20.13 18.53 21.12 17.65 22.48 17.56C24.68 17.42 26.55 18.18 28 19.79C30.37 22.41 30.99 25.46 29.82 28.78C28.96 31.23 27.02 32.47 24.51 32.88C24.06 32.96 23.59 32.97 23.31 33ZM21.26 21.28C21.39 23.08 20.86 24.6 19.26 25.62C19.04 25.77 18.82 25.94 18.62 26.13C17.69 26.97 17.2 28.61 18.46 29.85C18.74 30.14 19.06 30.4 19.41 30.62C21.14 31.62 23.01 31.79 24.93 31.35C26.7 30.94 27.93 29.89 28.56 28.16C29.56 25.39 28.63 21.99 26.31 20.15C25.18 19.26 23.89 18.81 22.43 19C21.7 19.1 21.3 19.57 21.27 20.3C21.25 20.63 21.27 20.95 21.27 21.28L21.26 21.28Z" fill="#3F7C91" fill-opacity="1.000000" fill-rule="nonzero"/>
	<path id="Vector" d="M24 23.15C23.63 23.14 23.28 22.98 23.02 22.72C22.76 22.45 22.62 22.09 22.62 21.72C22.63 21.35 22.79 20.99 23.07 20.73C23.34 20.47 23.71 20.33 24.09 20.34C24.85 20.37 25.47 21.04 25.44 21.79C25.42 22.55 24.75 23.18 24 23.15Z" fill="#3F7C91" fill-opacity="1.000000" fill-rule="nonzero"/>
	<path id="Vector" d="M24.74 28.4C24.74 28.13 24.86 27.87 25.05 27.67C25.25 27.48 25.51 27.37 25.78 27.36C25.92 27.36 26.06 27.39 26.19 27.44C26.32 27.5 26.44 27.58 26.54 27.68C26.64 27.77 26.71 27.89 26.77 28.02C26.82 28.15 26.85 28.29 26.85 28.43C26.84 28.7 26.73 28.97 26.53 29.16C26.34 29.35 26.07 29.46 25.8 29.47C25.66 29.47 25.52 29.44 25.39 29.39C25.26 29.33 25.14 29.25 25.05 29.16C24.95 29.06 24.87 28.94 24.82 28.81C24.76 28.68 24.74 28.54 24.74 28.4Z" fill="#3F7C91" fill-opacity="1.000000" fill-rule="nonzero"/>
	<path id="Vector" d="M19.11 28.4C19.12 28.12 19.23 27.86 19.43 27.67C19.62 27.48 19.88 27.37 20.16 27.36C20.3 27.36 20.44 27.39 20.57 27.44C20.7 27.5 20.81 27.58 20.91 27.68C21.01 27.78 21.09 27.89 21.14 28.02C21.19 28.15 21.22 28.29 21.22 28.43C21.21 28.71 21.1 28.97 20.91 29.16C20.71 29.35 20.45 29.46 20.17 29.47C20.03 29.47 19.89 29.44 19.76 29.39C19.63 29.33 19.52 29.25 19.42 29.15C19.32 29.05 19.24 28.94 19.19 28.81C19.14 28.68 19.11 28.54 19.11 28.4Z" fill="#3F7C91" fill-opacity="1.000000" fill-rule="nonzero"/>
	<path id="Vector" d="M26.48 24.56C26.75 24.56 27.02 24.66 27.22 24.85C27.42 25.04 27.53 25.3 27.54 25.57C27.55 25.71 27.52 25.85 27.48 25.98C27.43 26.11 27.35 26.23 27.26 26.33C27.16 26.44 27.04 26.52 26.92 26.57C26.79 26.63 26.65 26.66 26.51 26.66C26.24 26.67 25.97 26.56 25.77 26.37C25.57 26.18 25.46 25.92 25.45 25.65C25.44 25.51 25.46 25.37 25.51 25.24C25.56 25.11 25.64 24.99 25.73 24.89C25.83 24.79 25.94 24.71 26.07 24.65C26.2 24.59 26.34 24.56 26.48 24.56Z" fill="#3F7C91" fill-opacity="1.000000" fill-rule="nonzero"/>
	<path id="Vector" d="M24.03 29.82C24.03 29.95 24 30.09 23.95 30.22C23.9 30.35 23.82 30.47 23.72 30.57C23.62 30.66 23.5 30.74 23.37 30.79C23.24 30.84 23.11 30.87 22.97 30.87C22.69 30.86 22.43 30.75 22.23 30.56C22.04 30.36 21.93 30.1 21.93 29.83C21.93 29.69 21.96 29.55 22.01 29.42C22.06 29.29 22.14 29.18 22.24 29.08C22.34 28.98 22.46 28.9 22.59 28.85C22.72 28.8 22.85 28.78 22.99 28.78C23.13 28.78 23.26 28.81 23.39 28.86C23.52 28.91 23.63 28.99 23.73 29.08C23.82 29.18 23.9 29.29 23.95 29.42C24 29.54 24.03 29.68 24.03 29.82Z" fill="#3F7C91" fill-opacity="1.000000" fill-rule="nonzero"/>
</svg>
