<svg width="30.000000" height="33.000000" viewBox="0 0 30 33" fill="none" xmlns="http://www.w3.org/2000/svg" xmlns:xlink="http://www.w3.org/1999/xlink">
	<desc>
			Created with Pixso.
	</desc>
	<defs/>
	<path id="Vector" d="M6.25 32.99L6.25 32.5C6.25 31.11 6.25 29.72 6.25 28.33C6.24 26.78 5.73 25.45 4.58 24.39C2.65 22.63 1.3 20.49 0.57 17.97C-1.74 10.02 3.15 1.79 11.16 0.27C15.47 -0.55 19.34 0.43 22.47 3.7C24.43 5.76 25.51 8.28 25.99 11.08C26.03 11.22 26.05 11.37 26.06 11.52C26.02 12.46 26.5 13.14 27.09 13.81C27.96 14.8 28.77 15.84 29.61 16.87C30.3 17.73 30.04 18.67 29.01 19.05C28.22 19.34 27.42 19.62 26.62 19.88C26.31 19.97 26.23 20.13 26.23 20.45C26.25 21.85 26.24 23.25 26.24 24.66C26.24 26.02 25.64 26.88 24.38 27.33C23.14 27.77 21.9 28.18 20.66 28.59C19.39 29.01 18.76 29.87 18.75 31.23C18.74 31.8 18.75 32.38 18.75 33L6.25 32.99ZM16.22 9.1C16.24 8.21 15.7 7.65 14.98 7.65C14.28 7.65 13.87 8.1 13.69 9C13.1 12.08 12.5 15.14 11.89 18.21C11.69 19.25 11.46 20.29 11.28 21.34C11.12 22.31 11.89 23.06 12.8 22.82C13.45 22.66 13.66 22.15 13.78 21.54C14.38 18.44 14.99 15.35 15.6 12.25C15.82 11.15 16.03 10.05 16.22 9.1ZM23.78 15.27C23.68 15 23.63 14.73 23.49 14.52C22.69 13.27 21.89 12.02 21.05 10.8C20.84 10.53 20.55 10.33 20.22 10.23C19.72 10.08 19.26 10.29 18.97 10.73C18.65 11.21 18.68 11.72 18.99 12.19C19.57 13.09 20.15 13.99 20.75 14.88C20.94 15.14 20.96 15.33 20.77 15.61C20.16 16.48 19.59 17.37 19.02 18.26C18.59 18.94 18.71 19.7 19.29 20.1C19.9 20.52 20.64 20.35 21.1 19.66C21.89 18.46 22.68 17.26 23.46 16.05C23.6 15.82 23.67 15.54 23.78 15.27ZM8.79 19.04C8.67 18.76 8.58 18.46 8.42 18.21C7.86 17.33 7.29 16.45 6.7 15.59C6.54 15.35 6.53 15.17 6.7 14.93C7.31 14.03 7.91 13.12 8.49 12.2C8.9 11.55 8.76 10.8 8.19 10.4C7.59 10 6.85 10.16 6.41 10.82C5.6 12.03 4.81 13.25 4.01 14.47C3.66 14.99 3.66 15.51 4.01 16.04C4.4 16.62 4.78 17.22 5.17 17.81C5.62 18.48 6.04 19.17 6.51 19.83C6.67 20.05 6.89 20.21 7.14 20.29C7.39 20.36 7.66 20.35 7.91 20.26C8.4 20.07 8.73 19.59 8.79 19.04L8.79 19.04Z" fill="#3F7C91" fill-opacity="1.000000" fill-rule="nonzero"/>
</svg>
