<svg width="289.000000" height="401.000000" viewBox="0 0 289 401" fill="none" xmlns="http://www.w3.org/2000/svg" xmlns:xlink="http://www.w3.org/1999/xlink">
	<desc>
			Created with Pixso.
	</desc>
	<defs>
		<clipPath id="clip0_301">
			<rect id="discoverable_xwsc 1" width="289.000000" height="401.000000" transform="matrix(-1 0 0 1 289 0)" fill="white" fill-opacity="0"/>
		</clipPath>
	</defs>
	<rect id="discoverable_xwsc 1" width="289.000000" height="401.000000" transform="matrix(-1 0 0 1 289 0)" fill="#FFFFFF" fill-opacity="0"/>
	<g clip-path="url(#clip0_301)">
		<path id="Vector" d="M43.46 399.9C41.55 379.36 36.28 359.28 27.85 340.45C25.51 335.21 22.92 330.08 20.1 325.07C19.38 323.78 21.36 322.62 22.08 323.91C32.34 342.16 39.53 361.96 43.35 382.54C44.42 388.28 45.22 394.07 45.76 399.9C45.89 401.37 43.59 401.36 43.46 399.9Z" fill="#E6E6E6" fill-opacity="1.000000" fill-rule="nonzero"/>
		<path id="Vector" d="M0 314.22C0 322.25 6.51 328.75 14.54 328.75C22.57 328.75 29.08 322.25 29.08 314.22C29.08 306.19 22.57 299.69 14.54 299.69C6.51 299.69 0 306.19 0 314.22Z" fill="#E6E6E6" fill-opacity="1.000000" fill-rule="evenodd"/>
		<path id="Vector" d="M41.97 400.28C40.73 386.96 37.31 373.93 31.85 361.71C30.32 358.31 28.65 354.99 26.82 351.74C26.73 351.57 26.7 351.37 26.76 351.19C26.81 351 26.93 350.84 27.1 350.74C27.27 350.65 27.46 350.62 27.65 350.66C27.84 350.71 28 350.83 28.1 350.99C34.76 362.83 39.42 375.67 41.9 389.02C42.59 392.75 43.11 396.5 43.46 400.28C43.55 401.24 42.06 401.23 41.97 400.28Z" fill="#E6E6E6" fill-opacity="1.000000" fill-rule="nonzero"/>
		<path id="Vector" d="M13.77 344.7C13.77 349.91 18 354.13 23.21 354.13C28.42 354.13 32.65 349.91 32.65 344.7C32.65 339.49 28.42 335.27 23.21 335.27C18 335.27 13.77 339.49 13.77 344.7Z" fill="#E6E6E6" fill-opacity="1.000000" fill-rule="evenodd"/>
		<path id="Vector" d="M43.85 399.39C51.08 388.13 56.4 375.75 59.61 362.76C60.51 359.15 61.23 355.49 61.79 351.81C61.82 351.62 61.93 351.45 62.08 351.33C62.24 351.22 62.43 351.17 62.62 351.19C62.81 351.22 62.99 351.32 63.11 351.47C63.23 351.62 63.28 351.81 63.27 352C61.22 365.43 56.99 378.42 50.73 390.47C48.98 393.84 47.08 397.11 45.03 400.31C44.51 401.11 43.34 400.19 43.85 399.39Z" fill="#E6E6E6" fill-opacity="1.000000" fill-rule="nonzero"/>
		<path id="Vector" d="M53.84 344.04C53.84 349.25 58.07 353.47 63.28 353.47C68.49 353.47 72.71 349.25 72.71 344.04C72.71 338.83 68.49 334.61 63.28 334.61C58.07 334.61 53.84 338.83 53.84 344.04Z" fill="#E6E6E6" fill-opacity="1.000000" fill-rule="evenodd"/>
		<path id="Vector" d="M119.34 263.46C118.72 262.52 118.31 261.46 118.15 260.35C117.98 259.23 118.07 258.1 118.39 257.02C118.71 255.94 119.27 254.95 120.01 254.11C120.76 253.27 121.68 252.61 122.72 252.16L120.74 224.9L133.14 231.84L133.12 256.66C133.75 258.45 133.71 260.4 133 262.15C132.28 263.91 130.95 265.34 129.25 266.18C127.55 267.01 125.6 267.2 123.78 266.7C121.95 266.2 120.37 265.05 119.34 263.46Z" fill="#FFB8B8" fill-opacity="1.000000" fill-rule="nonzero"/>
		<path id="Vector" d="M122.42 157.5L119.03 244.24L132.81 243.48L135.87 152.47L132.97 151.1C131.86 150.58 130.64 150.34 129.42 150.41C128.2 150.47 127.02 150.84 125.97 151.47C124.93 152.11 124.06 152.99 123.44 154.04C122.82 155.09 122.47 156.28 122.42 157.5Z" fill="#3F7C91" fill-opacity="1.000000" fill-rule="nonzero"/>
		<path id="Vector" d="M165.04 391.72L174.42 391.72L178.89 355.56L165.03 355.56L165.04 391.72Z" fill="#FFB8B8" fill-opacity="1.000000" fill-rule="nonzero"/>
		<path id="Vector" d="M181.12 389.04L163.03 389.04L163.03 400.43L192.52 400.43C192.52 398.93 192.23 397.45 191.65 396.07C191.08 394.69 190.24 393.44 189.18 392.38C188.12 391.32 186.87 390.48 185.49 389.91C184.1 389.34 182.62 389.04 181.12 389.04Z" fill="#2F2E41" fill-opacity="1.000000" fill-rule="nonzero"/>
		<path id="Vector" d="M86.95 380.52L95.47 384.46L114.73 353.51L102.16 347.7L86.95 380.52Z" fill="#FFB8B8" fill-opacity="1.000000" fill-rule="nonzero"/>
		<path id="Vector" d="M102.68 384.84L86.25 377.24L81.47 387.57L108.23 399.95C108.86 398.6 109.22 397.13 109.28 395.64C109.34 394.14 109.1 392.65 108.59 391.25C108.07 389.84 107.29 388.55 106.27 387.46C105.26 386.36 104.04 385.47 102.68 384.84Z" fill="#2F2E41" fill-opacity="1.000000" fill-rule="nonzero"/>
		<path id="Vector" d="M187.32 273.69L177.64 384.05L164.63 382.52L155.01 281.72L101.86 377.93L88.08 374.1C88.08 374.1 132.43 241.56 135.87 230.48C139.65 218.32 169.55 213.65 169.55 213.65L170.7 212.5C183.55 229.78 188.7 252.21 187.32 273.69Z" fill="#2F2E41" fill-opacity="1.000000" fill-rule="nonzero"/>
		<path id="Vector" d="M116.96 122.74C116.96 133.12 125.37 141.53 135.76 141.53C146.14 141.53 154.56 133.12 154.56 122.74C154.56 112.37 146.14 103.96 135.76 103.96C125.37 103.96 116.96 112.37 116.96 122.74Z" fill="#FFB8B8" fill-opacity="1.000000" fill-rule="evenodd"/>
		<path id="Vector" d="M122.53 151.55L137.02 227.03C137.02 227.03 156.88 223.07 163.95 218.3C166.75 216.4 169.29 214.45 171.44 212.67C173.85 210.69 176.16 208.59 178.36 206.38C178.36 206.38 173.27 181.44 171.46 174.77C169.35 167.03 162.13 158.03 156.5 151.89C154.46 149.66 151.85 148.04 148.95 147.18C146.06 146.32 142.98 146.27 140.06 147.03L122.53 151.55Z" fill="#3F7C91" fill-opacity="1.000000" fill-rule="nonzero"/>
		<g opacity="0.200000">
			<path id="Vector" d="M163.95 218.3C166.75 216.4 169.29 214.45 171.44 212.67C170.66 201.24 153.82 177.32 146.99 177.32C146.99 177.32 145.37 214.19 163.95 218.3Z" fill="#000000" fill-opacity="1.000000" fill-rule="nonzero"/>
		</g>
		<path id="Vector" d="M198.63 248.31C197.57 247.93 196.61 247.31 195.82 246.52C195.02 245.73 194.41 244.77 194.02 243.71C193.64 242.65 193.49 241.53 193.59 240.41C193.69 239.29 194.03 238.2 194.59 237.23L176.71 216.55L190.81 214.71L205.63 234.63C207.2 235.69 208.33 237.28 208.81 239.11C209.28 240.95 209.07 242.89 208.21 244.58C207.35 246.26 205.89 247.57 204.13 248.26C202.36 248.95 200.41 248.97 198.63 248.31Z" fill="#FFB8B8" fill-opacity="1.000000" fill-rule="nonzero"/>
		<path id="Vector" d="M148.64 147.9C149.42 147.91 150.19 148 150.96 148.16C152.5 148.51 153.93 149.24 155.12 150.28C156.31 151.33 157.23 152.65 157.78 154.13L179.89 200.27L203.62 225.5L191.75 235.06L154.24 201.41L139.26 160.66C138.78 159.19 138.66 157.63 138.9 156.1C139.15 154.57 139.76 153.13 140.67 151.88C141.59 150.63 142.79 149.62 144.17 148.93C145.56 148.24 147.09 147.88 148.64 147.9Z" fill="#3F7C91" fill-opacity="1.000000" fill-rule="nonzero"/>
		<path id="Vector" d="M134.64 141.35C131.97 137.35 129.86 131.8 132.8 128C135.71 124.24 141.45 124.79 145.9 123.13C152.11 120.81 155.7 113.53 154.58 107.01C153.46 100.49 148.22 95.08 141.98 92.87C135.74 90.66 128.7 91.38 122.59 93.93C115.06 97.06 108.61 103.13 105.9 110.81C103.19 118.49 104.64 127.72 110.26 133.62C116.27 139.95 125.72 141.64 134.46 141.54L134.64 141.35Z" fill="#2F2E41" fill-opacity="1.000000" fill-rule="nonzero"/>
		<path id="Vector" d="M105.12 119.21C104.35 123.48 99.66 125.91 95.34 126.44C91.03 126.98 86.57 126.29 82.36 127.41C74.96 129.39 70.07 136.51 67.39 143.68C64.7 150.85 63.51 158.59 60.01 165.41C56.52 172.22 49.75 178.23 42.11 177.6C43.6 181.36 46.23 184.57 49.62 186.79C53.01 189.01 57 190.13 61.05 190C65.1 189.87 69.02 188.49 72.26 186.06C75.5 183.62 77.9 180.25 79.15 176.4C81.96 167.74 78.74 157.42 83.65 149.75C86.36 145.51 91.05 143.02 95.57 140.8C100.09 138.57 104.84 136.29 107.87 132.27C110.9 128.25 111.51 121.9 107.77 118.52L105.12 119.21Z" fill="#2F2E41" fill-opacity="1.000000" fill-rule="nonzero"/>
		<path id="Vector" d="M13.56 400.83L258.75 400.83C258.87 400.83 258.99 400.81 259.1 400.76C259.21 400.72 259.31 400.65 259.4 400.56C259.48 400.48 259.55 400.38 259.59 400.27C259.64 400.16 259.66 400.04 259.66 399.92C259.66 399.8 259.64 399.68 259.59 399.57C259.55 399.46 259.48 399.36 259.4 399.27C259.31 399.19 259.21 399.12 259.1 399.08C258.99 399.03 258.87 399.01 258.75 399.01L13.56 399.01C13.44 399.01 13.32 399.03 13.21 399.08C13.1 399.12 13 399.19 12.92 399.27C12.83 399.36 12.76 399.46 12.72 399.57C12.67 399.68 12.65 399.8 12.65 399.92C12.65 400.04 12.67 400.16 12.72 400.27C12.76 400.38 12.83 400.48 12.92 400.56C13 400.65 13.1 400.72 13.21 400.76C13.32 400.81 13.44 400.83 13.56 400.83Z" fill="#3F3D56" fill-opacity="1.000000" fill-rule="nonzero"/>
	</g>
</svg>
