<svg width="461.000000" height="318.000000" viewBox="0 0 461 318" fill="none" xmlns="http://www.w3.org/2000/svg" xmlns:xlink="http://www.w3.org/1999/xlink">
	<desc>
			Created with Pixso.
	</desc>
	<defs>
		<clipPath id="clip0_354">
			<rect id="crypto_portfolio_2jy5 1" width="461.000000" height="318.000000" transform="matrix(-1 0 0 1 461 0)" fill="white" fill-opacity="0"/>
		</clipPath>
	</defs>
	<rect id="crypto_portfolio_2jy5 1" width="461.000000" height="318.000000" transform="matrix(-1 0 0 1 461 0)" fill="#FFFFFF" fill-opacity="0"/>
	<g clip-path="url(#clip0_354)">
		<path id="Vector" d="M419.33 138.88C427.87 145.85 413.9 206.99 413.9 206.99C413.9 206.99 410.8 300.24 404.2 304.5C397.61 308.76 382.86 304.11 377.05 303.34C371.23 302.56 376.27 244.91 384.8 223.62C393.34 202.34 386.74 171.39 386.74 171.39L340.58 180.29C340.58 180.29 368.51 203.89 367.35 208.92C366.18 213.95 336.31 230.98 330.88 231.75C325.45 232.52 314.98 200.79 305.66 179.12C296.35 157.45 369.29 143.52 369.29 143.52L379.37 124.56C379.37 124.56 410.8 131.92 419.33 138.88Z" fill="#2F2E41" fill-opacity="1.000000" fill-rule="nonzero"/>
		<path id="Vector" d="M396.16 306.1C396.16 306.1 398.98 315.93 396.16 315.93C393.35 315.93 388.19 318.74 380.21 317.8C372.23 316.87 374.58 307.04 380.21 305.64C385.84 304.23 384.43 293 384.43 293C386.31 289.26 395.22 293.94 395.22 293.94L396.16 306.1Z" fill="#2F2E41" fill-opacity="1.000000" fill-rule="nonzero"/>
		<path id="Vector" d="M356.2 227.95C356.2 227.95 361.02 236.97 358.27 237.56C355.52 238.15 351.07 241.98 343.08 242.74C335.08 243.51 335.3 233.41 340.5 230.85C345.71 228.29 341.96 217.61 341.96 217.61C343 213.56 352.71 216.26 352.71 216.26L356.2 227.95Z" fill="#2F2E41" fill-opacity="1.000000" fill-rule="nonzero"/>
		<path id="Vector" d="M414.09 55.1C413.32 56.65 416.81 76 416.81 76L413.71 81.42C413.71 81.42 395.86 74.45 398.58 73.29C401.29 72.13 400.9 57.81 400.9 57.81C400.9 57.81 414.87 53.56 414.09 55.1Z" fill="#FFB9B9" fill-opacity="1.000000" fill-rule="nonzero"/>
		<path id="Vector" d="M383.59 37.34C383.59 50.45 394.24 61.07 407.38 61.07C420.51 61.07 431.16 50.45 431.16 37.34C431.16 24.24 420.51 13.62 407.38 13.62C394.24 13.62 383.59 24.24 383.59 37.34Z" fill="#2F2E41" fill-opacity="1.000000" fill-rule="evenodd"/>
		<path id="Vector" d="M399.18 15.13C399.18 20.55 403.58 24.95 409.02 24.95C414.45 24.95 418.86 20.55 418.86 15.13C418.86 9.71 414.45 5.31 409.02 5.31C403.58 5.31 399.18 9.71 399.18 15.13Z" fill="#2F2E41" fill-opacity="1.000000" fill-rule="evenodd"/>
		<path id="Vector" d="M404.71 19.58C404.37 19.61 404.03 19.63 403.69 19.63C402.39 19.63 401.11 19.38 399.92 18.88C398.73 18.39 397.64 17.67 396.73 16.75C395.81 15.84 395.09 14.76 394.59 13.57C394.1 12.38 393.84 11.1 393.84 9.81C393.84 8.52 394.1 7.25 394.59 6.06C395.09 4.86 395.81 3.78 396.73 2.87C397.64 1.96 398.73 1.24 399.92 0.74C401.11 0.25 402.39 0 403.69 0C404.03 9.15e-5 404.37 0.01 404.71 0.05C402.29 0.3 400.05 1.44 398.42 3.24C396.8 5.05 395.89 7.39 395.89 9.81C395.89 12.24 396.8 14.58 398.42 16.38C400.05 18.19 402.29 19.32 404.71 19.58Z" fill="#2F2E41" fill-opacity="1.000000" fill-rule="nonzero"/>
		<path id="Vector" d="M390.43 48.91C390.43 57.89 397.72 65.16 406.72 65.16C415.72 65.16 423.02 57.89 423.02 48.91C423.02 39.94 415.72 32.66 406.72 32.66C397.72 32.66 390.43 39.94 390.43 48.91Z" fill="#FFB9B9" fill-opacity="1.000000" fill-rule="evenodd"/>
		<path id="Vector" d="M430.19 73.87C435.24 75.03 443.77 87.41 443.77 87.41L430.19 100.96C430.19 100.96 420.49 137.33 419.33 138.88C411.71 149.02 377.43 126.5 377.43 126.5C377.43 126.5 378.79 115.47 378.02 110.05C377.27 104.84 380.93 94.38 380.93 94.38C380.93 94.38 368.12 88.96 370.84 83.55C373.55 78.13 390.24 65.75 397.22 70C404.2 74.26 418.17 70 418.17 70C418.17 70 425.15 72.71 430.19 73.87Z" fill="#E6E6E6" fill-opacity="1.000000" fill-rule="nonzero"/>
		<path id="Vector" d="M331.07 151.84C331.07 151.84 308.96 170.8 303.53 166.94C298.1 163.07 324.48 149.52 324.48 149.52L331.07 151.84Z" fill="#FFB9B9" fill-opacity="1.000000" fill-rule="nonzero"/>
		<path id="Vector" d="M430.39 145.27C427.28 148.75 412.54 139.85 414.43 135.89C416.32 131.94 428.06 139.85 428.06 139.85C428.06 139.85 433.49 141.78 430.39 145.27Z" fill="#FFB9B9" fill-opacity="1.000000" fill-rule="nonzero"/>
		<path id="Vector" d="M430.19 92.83L446.49 123.02C446.49 123.02 427.87 138.49 425.54 138.88C423.21 139.27 430.19 149.33 430.19 149.33C430.19 149.33 451.14 134.62 459.29 127.27C467.44 119.92 443.77 87.41 443.77 87.41L436.79 83.16L430.19 92.83Z" fill="#E6E6E6" fill-opacity="1.000000" fill-rule="nonzero"/>
		<path id="Vector" d="M382.86 91.67L363.86 121.08C363.86 121.08 334.76 153.59 330.88 155.13C327 156.68 322.35 149.33 322.35 149.33L357.26 107.15L370.45 83.55L375.49 81.61L382.86 91.67Z" fill="#E6E6E6" fill-opacity="1.000000" fill-rule="nonzero"/>
		<path id="Vector" d="M390.97 29.6C390.97 35.02 398.32 39.42 407.38 39.42C416.44 39.42 423.78 35.02 423.78 29.6C423.78 24.18 416.44 19.78 407.38 19.78C398.32 19.78 390.97 24.18 390.97 29.6Z" fill="#2F2E41" fill-opacity="1.000000" fill-rule="evenodd"/>
		<path id="Vector" d="M361.36 241.43C361.9 241.43 362.41 241.64 362.79 242.02C363.17 242.4 363.39 242.92 363.39 243.45L363.39 312.44C363.39 312.98 363.17 313.49 362.79 313.87C362.41 314.25 361.9 314.46 361.36 314.46L125.52 314.46C124.98 314.46 124.47 314.25 124.08 313.87C123.7 313.49 123.49 312.98 123.49 312.44L123.49 243.45C123.49 242.92 123.7 242.4 124.08 242.02C124.47 241.64 124.98 241.43 125.52 241.43L361.36 241.43Z" fill="#E6E6E6" fill-opacity="1.000000" fill-rule="nonzero"/>
		<path id="Vector" d="M358.3 309.4L128.57 309.4L128.57 246.5L358.3 246.5L358.3 309.4Z" fill="#FFFFFF" fill-opacity="1.000000" fill-rule="nonzero"/>
		<path id="Vector" d="M157.57 296.35C158.01 296.35 158.45 296.43 158.86 296.6C159.26 296.77 159.64 297.01 159.95 297.33C160.26 297.64 160.51 298.01 160.68 298.41C160.85 298.82 160.93 299.26 160.93 299.7C160.93 300.14 160.85 300.57 160.68 300.98C160.51 301.39 160.26 301.76 159.95 302.07C159.64 302.38 159.26 302.63 158.86 302.79C158.45 302.96 158.01 303.05 157.57 303.05L144.13 303.05C143.24 303.05 142.39 302.7 141.76 302.07C141.13 301.44 140.77 300.59 140.77 299.7C140.77 298.81 141.13 297.96 141.76 297.33C142.39 296.7 143.24 296.35 144.13 296.35L157.57 296.35Z" fill="#3F7C91" fill-opacity="1.000000" fill-rule="nonzero"/>
		<path id="Vector" d="M295.88 289.85L140.77 289.85L140.77 290.73L295.88 290.73L295.88 289.85Z" fill="#E6E6E6" fill-opacity="1.000000" fill-rule="evenodd"/>
		<path id="Vector" d="M308.74 277.95C308.74 288.72 317.5 297.46 328.3 297.46C339.11 297.46 347.87 288.72 347.87 277.95C347.87 267.17 339.11 258.43 328.3 258.43C317.5 258.43 308.74 267.17 308.74 277.95Z" fill="#3F7C91" fill-opacity="1.000000" fill-rule="evenodd"/>
		<path id="Vector" d="M295.64 284.93L296.13 284.19L280.01 273.47L268.96 278.76L253.06 268.63L221.43 282.09L196.25 269.75L171.8 279.64L141.07 252.49L140.48 253.15L171.62 280.66L196.22 270.72L221.41 283.06L252.98 269.63L268.9 279.77L279.94 274.49L295.64 284.93Z" fill="#3F3D56" fill-opacity="1.000000" fill-rule="nonzero"/>
		<path id="Vector" d="M293.01 296.81C293.39 296.81 293.76 296.88 294.11 297.03C294.46 297.17 294.78 297.38 295.04 297.65C295.31 297.91 295.52 298.23 295.67 298.57C295.81 298.92 295.89 299.3 295.89 299.67C295.89 300.05 295.81 300.42 295.67 300.77C295.52 301.12 295.31 301.43 295.04 301.7C294.78 301.97 294.46 302.18 294.11 302.32C293.76 302.46 293.39 302.54 293.01 302.54L262.96 302.54C262.2 302.54 261.47 302.23 260.93 301.7C260.39 301.16 260.09 300.43 260.09 299.67C260.09 298.91 260.39 298.19 260.93 297.65C261.47 297.11 262.2 296.81 262.96 296.81L293.01 296.81Z" fill="#E6E6E6" fill-opacity="1.000000" fill-rule="nonzero"/>
		<path id="Vector" d="M320.83 269.22L317.77 269.22L324.14 275.5C325.25 276.59 326.74 277.2 328.31 277.2C329.87 277.2 331.36 276.59 332.47 275.5L338.83 269.22L335.78 269.22L330.95 273.99C330.24 274.68 329.29 275.07 328.3 275.07C327.32 275.07 326.37 274.68 325.66 273.99L320.83 269.22ZM335.82 286.68L338.87 286.68L332.47 280.36C331.36 279.27 329.86 278.65 328.3 278.65C326.74 278.65 325.25 279.27 324.14 280.36L317.74 286.68L320.79 286.68L325.66 281.87C326.37 281.18 327.32 280.79 328.3 280.79C329.29 280.79 330.24 281.18 330.95 281.87L335.82 286.68Z" fill="#FFFFFF" fill-opacity="1.000000" fill-rule="nonzero"/>
		<path id="Vector" d="M330.65 20.45C331.19 20.45 331.7 20.66 332.08 21.04C332.46 21.42 332.67 21.93 332.68 22.47L332.68 91.46C332.67 92 332.46 92.51 332.08 92.89C331.7 93.27 331.19 93.48 330.65 93.48L94.81 93.48C94.27 93.48 93.75 93.27 93.37 92.89C92.99 92.51 92.78 92 92.78 91.46L92.78 22.47C92.78 21.93 92.99 21.42 93.37 21.04C93.75 20.66 94.27 20.45 94.81 20.45L330.65 20.45Z" fill="#E6E6E6" fill-opacity="1.000000" fill-rule="nonzero"/>
		<path id="Vector" d="M327.59 88.41L97.86 88.41L97.86 25.52L327.59 25.52L327.59 88.41Z" fill="#FFFFFF" fill-opacity="1.000000" fill-rule="nonzero"/>
		<path id="Vector" d="M126.86 75.37C127.75 75.37 128.6 75.72 129.23 76.35C129.86 76.98 130.22 77.83 130.22 78.72C130.22 79.6 129.86 80.46 129.23 81.09C128.6 81.71 127.75 82.07 126.86 82.07L113.42 82.07C112.53 82.07 111.68 81.71 111.05 81.09C110.42 80.46 110.06 79.6 110.06 78.72C110.06 77.83 110.42 76.98 111.05 76.35C111.68 75.72 112.53 75.37 113.42 75.37L126.86 75.37Z" fill="#3F7C91" fill-opacity="1.000000" fill-rule="nonzero"/>
		<path id="Vector" d="M265.17 68.87L110.06 68.87L110.06 69.75L265.17 69.75L265.17 68.87Z" fill="#E6E6E6" fill-opacity="1.000000" fill-rule="evenodd"/>
		<path id="Vector" d="M278.03 56.96C278.03 67.74 286.79 76.48 297.59 76.48C308.4 76.48 317.16 67.74 317.16 56.96C317.16 46.19 308.4 37.45 297.59 37.45C286.79 37.45 278.03 46.19 278.03 56.96Z" fill="#3F7C91" fill-opacity="1.000000" fill-rule="evenodd"/>
		<path id="Vector" d="M264.93 63.94L265.42 63.21L249.3 52.49L238.25 57.78L222.35 47.65L222.13 47.74L190.72 61.11L165.54 48.77L141.09 58.66L110.36 31.51L109.77 32.17L140.91 59.68L165.51 49.73L190.7 62.08L222.27 48.65L238.18 58.79L249.23 53.5L264.93 63.94Z" fill="#3F3D56" fill-opacity="1.000000" fill-rule="nonzero"/>
		<path id="Vector" d="M262.3 75.83C263.06 75.83 263.79 76.13 264.33 76.67C264.87 77.2 265.17 77.93 265.17 78.69C265.17 79.45 264.87 80.18 264.33 80.72C263.79 81.25 263.06 81.56 262.3 81.56L232.25 81.56C231.49 81.56 230.76 81.25 230.22 80.72C229.68 80.18 229.38 79.45 229.38 78.69C229.38 77.93 229.68 77.2 230.22 76.67C230.76 76.13 231.49 75.83 232.25 75.83L262.3 75.83Z" fill="#E6E6E6" fill-opacity="1.000000" fill-rule="nonzero"/>
		<path id="Vector" d="M289.72 54.69C289.36 52.24 291.22 50.93 293.77 50.06L292.94 46.75L294.96 46.25L295.77 49.47C296.3 49.34 296.84 49.21 297.38 49.09L296.57 45.85L298.59 45.34L299.42 48.65C299.86 48.55 300.29 48.45 300.71 48.35L300.71 48.34L303.49 47.64L304.03 49.8C304.03 49.8 302.53 50.14 302.56 50.16C302.28 50.19 302.03 50.33 301.85 50.55C301.67 50.77 301.59 51.05 301.62 51.33L302.56 55.1C302.49 55.12 302.42 55.14 302.35 55.17L302.56 55.11L303.88 60.39C303.91 60.48 303.96 60.57 304.02 60.64C304.09 60.72 304.16 60.78 304.25 60.82C304.33 60.87 304.43 60.9 304.52 60.9C304.62 60.91 304.72 60.9 304.81 60.87C304.79 60.9 306.28 60.51 306.28 60.51L307.28 62.81L304.65 63.46C304.16 63.59 303.68 63.71 303.21 63.84L304.05 67.18L302.03 67.68L301.2 64.37C300.65 64.52 300.12 64.66 299.6 64.79L300.42 68.08L298.4 68.59L297.57 65.25C294.12 65.9 291.53 65.63 290.45 62.53C289.57 60.03 290.49 58.59 292.3 57.64C290.98 57.34 289.99 56.47 289.72 54.69L289.72 54.69ZM294.34 61.14C294.96 63.64 299.18 62.29 300.55 61.95L299.44 57.52C298.07 57.86 293.68 58.53 294.33 61.14L294.34 61.14ZM293.71 54.65C294.28 56.93 297.79 55.77 298.93 55.49L297.93 51.47C296.79 51.75 293.12 52.28 293.71 54.65Z" fill="#FFFFFF" fill-opacity="1.000000" fill-rule="nonzero"/>
		<path id="Vector" d="M237.86 130.94C238.4 130.94 238.92 131.15 239.3 131.53C239.68 131.91 239.89 132.42 239.89 132.96L239.89 201.95C239.89 202.49 239.68 203 239.3 203.38C238.92 203.76 238.4 203.97 237.86 203.97L2.02 203.97C1.49 203.97 0.97 203.76 0.59 203.38C0.21 203 0 202.49 0 201.95L0 132.96C0 132.42 0.21 131.91 0.59 131.53C0.97 131.15 1.49 130.94 2.02 130.94L237.86 130.94Z" fill="#E6E6E6" fill-opacity="1.000000" fill-rule="nonzero"/>
		<path id="Vector" d="M234.81 198.9L5.08 198.9L5.08 136.01L234.81 136.01L234.81 198.9Z" fill="#FFFFFF" fill-opacity="1.000000" fill-rule="nonzero"/>
		<path id="Vector" d="M34.07 185.86C34.97 185.86 35.82 186.21 36.45 186.84C37.08 187.47 37.43 188.32 37.43 189.21C37.43 190.1 37.08 190.95 36.45 191.58C35.82 192.2 34.97 192.56 34.07 192.56L20.64 192.56C19.75 192.56 18.89 192.2 18.26 191.58C17.63 190.95 17.28 190.1 17.28 189.21C17.28 188.32 17.63 187.47 18.26 186.84C18.89 186.21 19.75 185.86 20.64 185.86L34.07 185.86Z" fill="#3F7C91" fill-opacity="1.000000" fill-rule="nonzero"/>
		<path id="Vector" d="M172.39 179.36L17.28 179.36L17.28 180.24L172.39 180.24L172.39 179.36Z" fill="#E6E6E6" fill-opacity="1.000000" fill-rule="evenodd"/>
		<path id="Vector" d="M185.24 167.46C185.24 178.23 194 186.97 204.81 186.97C215.62 186.97 224.37 178.23 224.37 167.46C224.37 156.68 215.62 147.94 204.81 147.94C194 147.94 185.24 156.68 185.24 167.46Z" fill="#3F7C91" fill-opacity="1.000000" fill-rule="evenodd"/>
		<path id="Vector" d="M172.14 174.43L172.63 173.7L156.51 162.98L145.46 168.27L129.56 158.14L129.35 158.23L97.94 171.6L72.76 159.26L48.3 169.15L17.57 142L16.99 142.66L48.12 170.17L72.72 160.23L97.91 172.57L129.48 159.14L145.4 169.28L156.44 164L172.14 174.43Z" fill="#3F3D56" fill-opacity="1.000000" fill-rule="nonzero"/>
		<path id="Vector" d="M169.51 186.32C170.28 186.32 171.01 186.62 171.55 187.16C172.08 187.69 172.39 188.42 172.39 189.18C172.39 189.94 172.08 190.67 171.55 191.21C171.01 191.75 170.28 192.05 169.51 192.05L139.47 192.05C138.7 192.05 137.97 191.75 137.43 191.21C136.89 190.67 136.59 189.94 136.59 189.18C136.59 188.42 136.89 187.69 137.43 187.16C137.97 186.62 138.7 186.32 139.47 186.32L169.51 186.32Z" fill="#E6E6E6" fill-opacity="1.000000" fill-rule="nonzero"/>
		<path id="Vector" d="M204.81 180.32L196.89 169.19L204.81 173.86L212.73 169.19L204.81 180.32L204.81 180.32Z" fill="#FFFFFF" fill-opacity="1.000000" fill-rule="nonzero"/>
		<path id="Vector" d="M204.81 172.36L204.81 172.36L196.9 167.69L204.81 154.59L204.81 154.59L212.73 167.69L204.81 172.36Z" fill="#FFFFFF" fill-opacity="1.000000" fill-rule="nonzero"/>
	</g>
</svg>
